<?xml version="1.0" standalone="no"?>
<!DOCTYPE svg PUBLIC "-//W3C//DTD SVG 20010904//EN"
 "http://www.w3.org/TR/2001/REC-SVG-20010904/DTD/svg10.dtd">
<svg version="1.0" xmlns="http://www.w3.org/2000/svg"
 width="512.000000pt" height="512.000000pt" viewBox="0 0 512.000000 512.000000"
 preserveAspectRatio="xMidYMid meet">

<g transform="translate(0.000000,512.000000) scale(0.100000,-0.100000)"
fill="white" stroke="none">
<path d="M2310 4974 c-161 -19 -221 -28 -328 -50 -247 -50 -464 -128 -697
-248 -745 -384 -1219 -1069 -1274 -1838 -10 -127 -2 -345 14 -445 54 -323 165
-611 340 -873 l63 -95 -14 -120 c-30 -261 -76 -489 -139 -680 -48 -147 -142
-336 -205 -413 -28 -35 -50 -66 -47 -68 6 -6 221 34 372 71 401 96 705 205
974 346 106 57 420 261 611 398 47 34 95 61 107 61 32 0 82 -49 89 -88 6 -30
2 -37 -42 -80 -27 -26 -136 -105 -241 -176 -106 -72 -193 -133 -193 -136 0
-18 365 -99 550 -121 136 -17 507 -17 635 -1 618 79 1172 340 1575 743 816
816 876 2034 142 2909 -393 469 -967 780 -1632 885 -101 16 -571 29 -660 19z
m-866 -2044 c246 -124 159 -501 -116 -501 -103 0 -175 39 -229 123 -44 69 -52
169 -19 246 27 61 92 124 153 146 60 22 151 16 211 -14z m1233 2 c202 -103
196 -394 -10 -482 -67 -29 -149 -29 -213 -1 -224 100 -210 410 23 497 51 19
148 12 200 -14z m1206 12 c64 -22 130 -82 157 -146 33 -77 25 -177 -19 -246
-54 -84 -126 -123 -229 -123 -180 0 -307 180 -247 352 49 139 198 211 338 163z"/>
</g>
</svg>
