<?xml version="1.0" standalone="no"?>
<!DOCTYPE svg PUBLIC "-//W3C//DTD SVG 20010904//EN"
 "http://www.w3.org/TR/2001/REC-SVG-20010904/DTD/svg10.dtd">
<svg version="1.0" xmlns="http://www.w3.org/2000/svg"
 width="512.000000pt" height="512.000000pt" viewBox="0 0 512.000000 512.000000"
 preserveAspectRatio="xMidYMid meet">

<g transform="translate(0.000000,512.000000) scale(0.100000,-0.100000)"
fill="white" stroke="none">
<path d="M1615 3606 c-27 -13 -58 -32 -67 -42 -29 -33 -58 -107 -58 -149 0
-84 22 -111 403 -492 l362 -363 -362 -362 c-198 -200 -367 -376 -376 -393 -42
-87 -27 -176 43 -245 69 -70 158 -85 245 -43 17 9 193 178 393 376 l362 362
363 -362 c244 -244 374 -367 399 -378 136 -56 286 32 296 174 8 109 13 102
-386 504 l-367 367 362 363 c381 381 402 407 403 492 0 44 -36 131 -66 157
-33 29 -107 58 -149 58 -84 0 -111 -22 -492 -403 l-363 -362 -362 362 c-382
381 -408 402 -493 403 -22 0 -62 -11 -90 -24z"/>
</g>
</svg>
