<?xml version="1.0" standalone="no"?>
<!DOCTYPE svg PUBLIC "-//W3C//DTD SVG 20010904//EN"
 "http://www.w3.org/TR/2001/REC-SVG-20010904/DTD/svg10.dtd">
<svg version="1.0" xmlns="http://www.w3.org/2000/svg"
 width="512.000000pt" height="512.000000pt" viewBox="0 0 512.000000 512.000000"
 preserveAspectRatio="xMidYMid meet">

<g transform="translate(0.000000,512.000000) scale(0.100000,-0.100000)"
fill="#000000" stroke="none">
<path d="M0 2560 l0 -2560 2560 0 2560 0 0 2560 0 2560 -2560 0 -2560 0 0
-2560z m4875 0 l0 -2315 -2315 0 -2315 0 -3 2305 c-1 1268 0 2311 3 2318 3 10
472 12 2317 10 l2313 -3 0 -2315z"/>
<path d="M490 2560 l0 -2070 975 0 975 0 0 2070 0 2070 -975 0 -975 0 0 -2070z"/>
<path d="M2680 2560 l0 -2070 975 0 975 0 0 2070 0 2070 -975 0 -975 0 0
-2070z"/>
</g>
</svg>
