<?xml version="1.0" standalone="no"?>
<!DOCTYPE svg PUBLIC "-//W3C//DTD SVG 20010904//EN"
 "http://www.w3.org/TR/2001/REC-SVG-20010904/DTD/svg10.dtd">
<svg version="1.0" xmlns="http://www.w3.org/2000/svg"
 width="512.000000pt" height="512.000000pt" viewBox="0 0 512.000000 512.000000"
 preserveAspectRatio="xMidYMid meet">

<g transform="translate(0.000000,512.000000) scale(0.100000,-0.100000)"
fill="grey" stroke="none">
<path d="M2397 5105 c-317 -60 -584 -293 -685 -598 -51 -154 -54 -218 -50
-1242 4 -923 4 -931 26 -1014 110 -414 457 -684 877 -683 94 0 141 6 216 25
338 87 597 363 661 704 10 53 13 291 13 1053 0 1086 3 1032 -64 1205 -98 256
-336 465 -610 536 -102 27 -281 33 -384 14z m298 -377 c118 -29 256 -138 320
-252 67 -121 65 -78 65 -1136 0 -1058 2 -1016 -65 -1135 -137 -243 -438 -334
-692 -209 -76 38 -189 151 -227 227 -58 118 -56 80 -56 1117 0 1058 -2 1015
65 1136 115 206 358 310 590 252z"/>
<path d="M1062 2749 c-26 -13 -55 -39 -70 -62 -25 -38 -27 -49 -30 -175 -12
-460 134 -849 437 -1174 237 -253 594 -441 919 -483 l52 -7 0 -239 0 -239
-177 0 c-170 0 -178 -1 -219 -25 -130 -76 -119 -263 21 -326 37 -17 77 -19
565 -19 488 0 528 2 565 19 140 63 151 250 21 326 -41 24 -49 25 -219 25
l-177 0 0 239 0 239 53 7 c324 42 681 230 918 483 298 319 439 687 439 1151 0
117 -3 140 -21 179 -65 133 -261 134 -329 1 -16 -30 -20 -58 -20 -136 0 -400
-109 -696 -347 -944 -176 -183 -391 -302 -643 -356 -118 -25 -362 -25 -480 0
-252 54 -467 173 -643 356 -238 248 -347 544 -347 944 0 133 -26 186 -113 222
-51 21 -104 19 -155 -6z"/>
</g>
</svg>
