<?xml version="1.0" standalone="no"?>
<!DOCTYPE svg PUBLIC "-//W3C//DTD SVG 20010904//EN"
 "http://www.w3.org/TR/2001/REC-SVG-20010904/DTD/svg10.dtd">
<svg version="1.0" xmlns="http://www.w3.org/2000/svg"
 width="512.000000pt" height="512.000000pt" viewBox="0 0 512.000000 512.000000"
 preserveAspectRatio="xMidYMid meet">

<g transform="translate(0.000000,512.000000) scale(0.100000,-0.100000)"
fill="#000000" stroke="none">
<path d="M3679 5105 c-148 -28 -296 -93 -409 -181 -50 -38 -1451 -1438 -2431
-2429 -424 -429 -466 -478 -553 -653 -49 -97 -91 -227 -111 -337 -21 -117 -21
-333 0 -450 88 -495 475 -905 960 -1018 359 -84 710 -18 1025 191 96 64 188
154 1802 1777 1049 1054 1003 1003 1000 1107 -2 90 -70 175 -159 197 -54 14
-105 6 -158 -24 -22 -13 -166 -151 -320 -307 -154 -155 -746 -750 -1315 -1322
-796 -799 -1052 -1050 -1107 -1086 -158 -104 -313 -146 -507 -137 -146 6 -237
30 -355 93 -390 207 -558 655 -400 1064 65 170 31 133 1487 1598 746 750 1372
1376 1392 1392 161 127 406 146 586 45 111 -62 202 -170 245 -290 18 -48 22
-82 22 -175 0 -131 -18 -195 -79 -290 -22 -34 -473 -492 -1163 -1182 -1104
-1105 -1127 -1127 -1181 -1142 -84 -25 -149 -8 -210 54 -62 62 -79 126 -54
210 15 53 34 73 574 615 385 386 564 572 575 597 30 73 13 171 -38 226 -61 66
-173 85 -252 44 -24 -12 -265 -246 -611 -594 -568 -569 -572 -574 -613 -658
-59 -123 -74 -193 -68 -320 8 -175 64 -306 183 -424 116 -116 248 -174 416
-183 127 -7 200 7 318 64 l95 45 1143 1141 c663 662 1168 1175 1202 1219 129
170 191 354 193 568 2 273 -88 494 -277 685 -122 123 -283 215 -447 255 -111
28 -298 35 -400 15z"/>
</g>
</svg>
