<?xml version="1.0" standalone="no"?>
<!DOCTYPE svg PUBLIC "-//W3C//DTD SVG 20010904//EN"
 "http://www.w3.org/TR/2001/REC-SVG-20010904/DTD/svg10.dtd">
<svg version="1.0" xmlns="http://www.w3.org/2000/svg"
 width="512.000000pt" height="512.000000pt" viewBox="0 0 512.000000 512.000000"
 preserveAspectRatio="xMidYMid meet">

<g transform="translate(0.000000,512.000000) scale(0.100000,-0.100000)"
fill="white" stroke="none">
<path d="M2365 4234 c-338 -33 -577 -89 -851 -199 -626 -251 -1149 -724 -1450
-1310 -83 -162 -83 -168 0 -330 352 -686 1011 -1213 1776 -1418 920 -248 1900
-7 2620 645 238 215 452 492 595 771 83 162 83 171 7 319 -308 600 -833 1076
-1462 1326 -330 131 -625 190 -985 196 -115 2 -228 2 -250 0z m393 -680 c378
-78 673 -355 784 -740 20 -69 23 -101 23 -254 0 -153 -3 -185 -23 -254 -106
-366 -362 -622 -728 -728 -69 -20 -101 -23 -254 -23 -153 0 -185 3 -254 23
-251 73 -458 221 -590 424 -113 174 -156 311 -163 519 -6 168 8 258 61 401
123 326 437 582 786 641 67 11 286 6 358 -9z"/>
<path d="M2392 3210 c-415 -109 -625 -581 -427 -959 172 -328 579 -457 903
-286 482 253 482 937 0 1190 -140 74 -323 95 -476 55z"/>
</g>
</svg>
