<?xml version="1.0" standalone="no"?>
<!DOCTYPE svg PUBLIC "-//W3C//DTD SVG 20010904//EN"
 "http://www.w3.org/TR/2001/REC-SVG-20010904/DTD/svg10.dtd">
<svg version="1.0" xmlns="http://www.w3.org/2000/svg"
 width="512.000000pt" height="512.000000pt" viewBox="0 0 512.000000 512.000000"
 preserveAspectRatio="xMidYMid meet">

<g transform="translate(0.000000,512.000000) scale(0.100000,-0.100000)"
fill="white" stroke="none">
<path d="M2285 4258 c-34 -9 -100 -70 -460 -429 l-420 -418 -331 -3 -330 -3
-75 -37 c-93 -46 -158 -112 -202 -206 l-32 -67 0 -535 0 -535 32 -67 c44 -94
109 -160 202 -206 l75 -37 330 -3 331 -3 420 -418 c409 -407 421 -419 472
-431 60 -14 103 -7 153 25 47 30 76 63 95 107 13 33 15 209 15 1565 0 1052 -3
1540 -11 1566 -15 57 -64 104 -131 127 -63 22 -74 23 -133 8z"/>
<path d="M3850 4104 c-67 -29 -113 -92 -126 -172 -10 -61 12 -107 90 -196 230
-260 355 -503 423 -825 24 -113 27 -147 27 -336 1 -180 -2 -226 -22 -323 -64
-316 -203 -596 -412 -827 -90 -100 -105 -123 -115 -178 -22 -113 92 -247 210
-247 79 0 152 56 293 225 524 625 628 1531 262 2280 -126 257 -356 555 -462
600 -47 19 -122 19 -168 -1z"/>
<path d="M3230 3484 c-45 -19 -77 -50 -100 -94 -44 -88 -33 -166 34 -239 242
-261 312 -604 186 -918 -36 -90 -104 -197 -169 -267 -82 -87 -101 -145 -77
-228 17 -58 78 -128 129 -147 48 -18 120 -13 168 12 49 26 154 142 222 245
218 332 274 734 152 1099 -19 58 -54 142 -77 186 -76 145 -211 312 -281 346
-52 25 -136 27 -187 5z"/>
</g>
</svg>
