<?xml version="1.0" standalone="no"?>
<!DOCTYPE svg PUBLIC "-//W3C//DTD SVG 20010904//EN"
 "http://www.w3.org/TR/2001/REC-SVG-20010904/DTD/svg10.dtd">
<svg version="1.0" xmlns="http://www.w3.org/2000/svg"
 width="512.000000pt" height="512.000000pt" viewBox="0 0 512.000000 512.000000"
 preserveAspectRatio="xMidYMid meet">

<g transform="translate(0.000000,512.000000) scale(0.100000,-0.100000)"
fill="red" stroke="none">
<path d="M575 4466 c-67 -29 -105 -105 -90 -183 6 -34 196 -227 1803 -1835
1608 -1607 1801 -1797 1835 -1803 60 -11 107 3 148 44 41 41 55 88 44 148 -6
34 -195 227 -1793 1826 -1056 1058 -1800 1795 -1819 1803 -40 17 -89 17 -128
0z"/>
<path d="M4095 4306 c-65 -28 -105 -107 -92 -176 4 -16 40 -84 80 -152 214
-354 322 -652 373 -1028 22 -158 25 -594 6 -750 -30 -239 -97 -497 -178 -682
-49 -111 -48 -118 44 -209 125 -126 157 -119 234 52 101 224 175 493 215 779
21 157 25 631 5 790 -44 361 -120 623 -267 925 -74 153 -200 371 -239 414 -43
48 -120 64 -181 37z"/>
<path d="M2237 4146 c-21 -8 -46 -20 -55 -28 -9 -8 -80 -66 -157 -128 -77 -62
-146 -120 -152 -129 -7 -8 -13 -31 -13 -50 0 -33 19 -55 293 -328 258 -259
296 -293 324 -293 17 0 41 9 54 19 l24 19 0 379 c0 371 0 379 -22 419 -58 109
-184 160 -296 120z"/>
<path d="M3610 3818 c-52 -27 -90 -84 -90 -139 0 -23 14 -62 40 -110 139 -253
214 -449 252 -655 18 -100 22 -156 22 -349 0 -247 -9 -327 -61 -515 -43 -158
-47 -139 50 -237 75 -77 89 -87 121 -87 51 0 71 25 105 128 70 212 98 375 108
616 17 444 -65 784 -286 1195 -64 120 -74 132 -126 156 -53 24 -82 24 -135 -3z"/>
<path d="M480 3347 c-49 -16 -133 -102 -148 -153 -17 -59 -17 -1209 0 -1268
16 -55 99 -138 154 -154 29 -8 149 -12 407 -12 l365 0 461 -377 c254 -208 477
-386 497 -397 48 -25 114 -31 171 -15 62 17 143 96 161 155 8 28 12 127 12
306 l0 264 -29 45 c-47 71 -1569 1585 -1613 1604 -29 12 -76 15 -220 14 -103
-1 -198 -6 -218 -12z"/>
<path d="M3135 3346 c-42 -18 -83 -69 -91 -113 -8 -45 1 -79 55 -201 69 -156
100 -308 101 -491 l0 -105 93 -93 c77 -77 98 -93 124 -93 72 0 90 45 100 246
12 254 -46 524 -162 754 -49 97 -134 134 -220 96z"/>
</g>
</svg>
