<?xml version="1.0" standalone="no"?>
<!DOCTYPE svg PUBLIC "-//W3C//DTD SVG 20010904//EN"
 "http://www.w3.org/TR/2001/REC-SVG-20010904/DTD/svg10.dtd">
<svg version="1.0" xmlns="http://www.w3.org/2000/svg"
 width="512.000000pt" height="512.000000pt" viewBox="0 0 512.000000 512.000000"
 preserveAspectRatio="xMidYMid meet">

<g transform="translate(0.000000,512.000000) scale(0.100000,-0.100000)"
fill="#000000" stroke="none">
<path d="M1930 4599 c-498 -64 -943 -339 -1215 -749 -124 -187 -208 -386 -257
-610 -20 -93 -23 -132 -23 -340 1 -222 2 -241 29 -354 85 -363 258 -663 516
-897 339 -308 765 -464 1220 -446 318 12 630 114 885 291 l92 64 584 -585
c350 -350 600 -593 624 -605 128 -67 291 22 303 166 9 106 31 80 -615 727
l-594 596 65 96 c443 654 377 1522 -161 2106 -330 358 -782 555 -1266 550 -67
-1 -151 -5 -187 -10z m420 -434 c443 -72 830 -396 985 -825 67 -188 91 -431
62 -626 -63 -407 -319 -764 -683 -949 -182 -93 -364 -135 -585 -135 -351 0
-653 124 -900 370 -188 188 -314 427 -360 690 -21 116 -16 355 9 470 83 381
316 693 652 873 99 54 263 111 376 131 107 19 326 20 444 1z"/>
</g>
</svg>
